<svg width="80" height="80" viewBox="0 0 80 80" fill="none" xmlns="http://www.w3.org/2000/svg">
<g clip-path="url(#clip0_97_1105)">
<path fill-rule="evenodd" clip-rule="evenodd" d="M40 80H20C14.6957 80 9.60859 77.8929 5.85786 74.1421C2.10714 70.3914 0 65.3043 0 60V20C0 14.6957 2.10714 9.60859 5.85786 5.85786C9.60859 2.10714 14.6957 0 20 0L60 0C65.3043 0 70.3914 2.10714 74.1421 5.85786C77.8929 9.60859 80 14.6957 80 20V60C80 65.3043 77.8929 70.3914 74.1421 74.1421C70.3914 77.8929 65.3043 80 60 80H52.5C52.5 78.3424 51.8415 76.7527 50.6694 75.5806C49.4973 74.4085 47.9076 73.75 46.25 73.75C44.5924 73.75 43.0027 74.4085 41.8306 75.5806C40.6585 76.7527 40 78.3424 40 80Z" fill="#3764B9"/>
<path fill-rule="evenodd" clip-rule="evenodd" d="M37.5 22.5H60C62.8865 22.5036 65.6639 21.3976 67.7577 19.4108C69.8516 17.424 71.1017 14.7084 71.2494 11.8257C71.3971 8.94305 70.4311 6.11388 68.5513 3.92346C66.6715 1.73303 64.0217 0.34894 61.15 0.0575C60.7675 0.03625 60.3887 0 60 0H20C14.6957 0 9.60859 2.10714 5.85786 5.85786C2.10714 9.60859 0 14.6957 0 20L0 60C0 50.0544 3.95088 40.5161 10.9835 33.4835C18.0161 26.4509 27.5544 22.5 37.5 22.5Z" fill="#507DD2"/>
<path fill-rule="evenodd" clip-rule="evenodd" d="M60 40C56.0444 40 52.1776 41.173 48.8886 43.3706C45.5996 45.5682 43.0362 48.6918 41.5224 52.3463C40.0087 56.0009 39.6126 60.0222 40.3843 63.9018C41.156 67.7814 43.0608 71.3451 45.8579 74.1421C48.6549 76.9392 52.2186 78.844 56.0982 79.6157C59.9778 80.3874 63.9992 79.9913 67.6537 78.4776C71.3082 76.9638 74.4318 74.4004 76.6294 71.1114C78.827 67.8224 80 63.9556 80 60V20C80 25.3043 77.8929 30.3914 74.1421 34.1421C70.3914 37.8929 65.3043 40 60 40Z" fill="#1E4BA0"/>
<path fill-rule="evenodd" clip-rule="evenodd" d="M65 22.5C65 23.163 64.7366 23.7989 64.2678 24.2678C63.7989 24.7366 63.163 25 62.5 25H55C54.337 25 53.7011 25.2634 53.2322 25.7322C52.7634 26.2011 52.5 26.837 52.5 27.5V37.5H61.95C62.3198 37.5 62.6851 37.5821 63.0193 37.7404C63.3536 37.8986 63.6486 38.129 63.8831 38.415C64.1176 38.701 64.2857 39.0355 64.3753 39.3943C64.4649 39.7531 64.4737 40.1273 64.4012 40.49L62.9012 47.99C62.788 48.5567 62.4818 49.0667 62.0349 49.4332C61.588 49.7996 61.0279 49.9999 60.45 50H52.5V80H40V50H32.5C31.837 50 31.2011 49.7366 30.7322 49.2678C30.2634 48.7989 30 48.163 30 47.5V40C30 39.337 30.2634 38.7011 30.7322 38.2322C31.2011 37.7634 31.837 37.5 32.5 37.5H40V27.5C40 23.5218 41.5804 19.7064 44.3934 16.8934C47.2064 14.0804 51.0218 12.5 55 12.5H62.5C63.163 12.5 63.7989 12.7634 64.2678 13.2322C64.7366 13.7011 65 14.337 65 15V22.5Z" fill="white"/>
</g>
<defs>
<clipPath id="clip0_97_1105">
<rect width="80" height="80" fill="white"/>
</clipPath>
</defs>
</svg>
