<svg width="38" height="38" viewBox="0 0 38 38" fill="none" xmlns="http://www.w3.org/2000/svg">
<g clip-path="url(#clip0_98_2628)">
<path d="M6.33328 16.1275H14.5666C14.7346 16.1275 14.8957 16.0608 15.0145 15.942C15.1332 15.8232 15.2 15.6621 15.2 15.4942C15.2 15.3262 15.1332 15.1651 15.0145 15.0463C14.8957 14.9276 14.7346 14.8608 14.5666 14.8608H6.33328C6.16531 14.8608 6.00422 14.9276 5.88545 15.0463C5.76668 15.1651 5.69995 15.3262 5.69995 15.4942C5.69995 15.6621 5.76668 15.8232 5.88545 15.942C6.00422 16.0608 6.16531 16.1275 6.33328 16.1275ZM22.8 18.6608H6.33328C6.16531 18.6608 6.00422 18.7276 5.88545 18.8463C5.76668 18.9651 5.69995 19.1262 5.69995 19.2942C5.69995 19.4621 5.76668 19.6232 5.88545 19.742C6.00422 19.8608 6.16531 19.9275 6.33328 19.9275H22.8C22.9679 19.9275 23.129 19.8608 23.2478 19.742C23.3666 19.6232 23.4333 19.4621 23.4333 19.2942C23.4333 19.1262 23.3666 18.9651 23.2478 18.8463C23.129 18.7276 22.9679 18.6608 22.8 18.6608ZM22.8 22.4608H6.33328C6.16531 22.4608 6.00422 22.5276 5.88545 22.6463C5.76668 22.7651 5.69995 22.9262 5.69995 23.0942C5.69995 23.2621 5.76668 23.4232 5.88545 23.542C6.00422 23.6608 6.16531 23.7275 6.33328 23.7275H22.8C22.9679 23.7275 23.129 23.6608 23.2478 23.542C23.3666 23.4232 23.4333 23.2621 23.4333 23.0942C23.4333 22.9262 23.3666 22.7651 23.2478 22.6463C23.129 22.5276 22.9679 22.4608 22.8 22.4608Z" fill="white"/>
<path d="M34.2456 1.60537L12.6223 1.56104C10.5513 1.56104 8.86667 3.2457 8.86667 5.3167V8.5619L3.75567 8.57267C1.68467 8.57267 0 10.2573 0 12.3283V25.7176C0 27.7886 1.68467 29.4727 3.75567 29.4727H7.6V35.806C7.59995 35.9339 7.6386 36.0587 7.71086 36.1642C7.78312 36.2697 7.88562 36.3508 8.00487 36.3969C8.12411 36.4431 8.25453 36.452 8.37896 36.4226C8.50339 36.3932 8.616 36.3269 8.702 36.2322L14.8479 29.4714L25.3777 29.4283C27.4487 29.4283 29.1333 27.7437 29.1333 25.6733V25.6017L32.4647 29.2662C32.5509 29.3602 32.6635 29.4259 32.7877 29.4549C32.912 29.4839 33.042 29.4748 33.161 29.4288C33.28 29.3828 33.3823 29.302 33.4547 29.197C33.527 29.0919 33.5661 28.9675 33.5667 28.84V22.5066H34.2443C36.3153 22.5066 38 20.822 38 18.7516V5.36104C37.9988 4.36555 37.6029 3.41115 36.8991 2.70712C36.1953 2.00309 35.2411 1.60688 34.2456 1.60537ZM27.8667 25.6727C27.8658 26.3329 27.603 26.9658 27.1358 27.4324C26.6686 27.899 26.0354 28.161 25.3751 28.161L14.5641 28.2054C14.4763 28.2057 14.3895 28.2243 14.3093 28.2599C14.2291 28.2956 14.1571 28.3475 14.098 28.4125L8.86667 34.1676V28.8387C8.86667 28.6707 8.79994 28.5096 8.68117 28.3909C8.56239 28.2721 8.4013 28.2054 8.23333 28.2054H3.75567C3.09586 28.2047 2.46326 27.9423 1.99664 27.4758C1.53003 27.0093 1.2675 26.3768 1.26667 25.717V12.3277C1.26751 11.6676 1.53018 11.0348 1.99705 10.5682C2.46392 10.1016 3.09685 9.8392 3.75693 9.8387L9.5 9.82667H9.50127L25.3777 9.79374C26.0376 9.79441 26.6703 10.0569 27.1369 10.5235C27.6035 10.9901 27.866 11.6228 27.8667 12.2827V25.6727ZM36.7333 18.7503C36.7325 19.4101 36.47 20.0427 36.0034 20.5092C35.5367 20.9757 34.9041 21.238 34.2443 21.2387H32.9333C32.7654 21.2387 32.6043 21.3054 32.4855 21.4242C32.3667 21.543 32.3 21.7041 32.3 21.872V27.2009L29.1333 23.7176V12.2834C29.1333 10.2124 27.4487 8.5277 25.3764 8.5277L10.1333 8.55874V5.31607C10.134 4.65637 10.3963 4.02386 10.8626 3.55727C11.329 3.09067 11.9614 2.82807 12.6211 2.82707L34.2437 2.8714H34.245C34.9049 2.87207 35.5376 3.13452 36.0042 3.60115C36.4708 4.06779 36.7333 4.70048 36.734 5.3604L36.7333 18.7503Z" fill="white"/>
</g>
<defs>
<clipPath id="clip0_98_2628">
<rect width="38" height="38" fill="white"/>
</clipPath>
</defs>
</svg>
