<svg width="80" height="80" viewBox="0 0 80 80" fill="none" xmlns="http://www.w3.org/2000/svg">
<g clip-path="url(#clip0_97_1101)">
<path d="M4.99904 5.44333C-1.28763 11.9733 -0.000963405 18.91 -0.000963405 39.9833C-0.000963405 57.4833 -3.0543 75.0267 12.9257 79.1567C17.9157 80.44 62.129 80.44 67.1124 79.15C73.7657 77.4333 79.179 72.0367 79.919 62.6267C80.0224 61.3133 80.0224 18.6767 79.9157 17.3367C79.129 7.31333 72.959 1.53666 64.829 0.366659C62.9657 0.0966586 62.5924 0.0166586 53.0324 -8.10623e-06C19.1224 0.0166586 11.689 -1.49334 4.99904 5.44333Z" fill="url(#paint0_linear_97_1101)"/>
<path d="M39.9914 10.4633C27.8881 10.4633 16.3947 9.38665 12.0047 20.6533C10.1914 25.3067 10.4547 31.35 10.4547 40.0033C10.4547 47.5967 10.2114 54.7333 12.0047 59.35C16.3847 70.6233 27.9714 69.5433 39.9847 69.5433C51.5747 69.5433 63.5248 70.75 67.9681 59.35C69.7848 54.65 69.5181 48.6967 69.5181 40.0033C69.5181 28.4633 70.1547 21.0133 64.5581 15.42C58.8914 9.75332 51.2281 10.4633 39.9781 10.4633H39.9914ZM37.3447 15.7867C62.5914 15.7467 65.8047 12.94 64.0314 51.93C63.4014 65.72 52.9014 64.2067 39.9947 64.2067C16.4614 64.2067 15.7847 63.5333 15.7847 39.99C15.7847 16.1733 17.6514 15.8 37.3447 15.78V15.7867ZM55.7581 20.69C54.8183 20.69 53.9171 21.0633 53.2526 21.7278C52.5881 22.3923 52.2147 23.2936 52.2147 24.2333C52.2147 25.1731 52.5881 26.0743 53.2526 26.7388C53.9171 27.4033 54.8183 27.7767 55.7581 27.7767C56.6978 27.7767 57.5991 27.4033 58.2636 26.7388C58.9281 26.0743 59.3014 25.1731 59.3014 24.2333C59.3014 23.2936 58.9281 22.3923 58.2636 21.7278C57.5991 21.0633 56.6978 20.69 55.7581 20.69ZM39.9914 24.8333C37.9995 24.8335 36.0271 25.2261 34.1869 25.9886C32.3466 26.7511 30.6746 27.8685 29.2663 29.2772C26.422 32.1221 24.8243 35.9804 24.8247 40.0033C24.8252 44.0262 26.4237 47.8842 29.2686 50.7285C32.1136 53.5728 35.9719 55.1704 39.9947 55.17C44.0176 55.1696 47.8756 53.571 50.7199 50.7261C53.5642 47.8812 55.1619 44.0229 55.1614 40C55.161 35.9771 53.5625 32.1191 50.7175 29.2748C47.8726 26.4305 44.0143 24.8329 39.9914 24.8333ZM39.9914 30.1567C53.0081 30.1567 53.0247 49.85 39.9914 49.85C26.9781 49.85 26.9581 30.1567 39.9914 30.1567Z" fill="white"/>
</g>
<defs>
<linearGradient id="paint0_linear_97_1101" x1="5.15244" y1="74.8903" x2="79.504" y2="10.5399" gradientUnits="userSpaceOnUse">
<stop stop-color="#FFDD55"/>
<stop offset="0.5" stop-color="#FF543E"/>
<stop offset="1" stop-color="#C837AB"/>
</linearGradient>
<clipPath id="clip0_97_1101">
<rect width="80" height="80" fill="white"/>
</clipPath>
</defs>
</svg>
