<svg width="674" height="675" viewBox="0 0 674 675" fill="none" xmlns="http://www.w3.org/2000/svg">
<path d="M647.021 374.426L644.094 374.12L645.166 363.857L648.093 364.163L647.021 374.426Z" fill="#BA9153"/>
<path d="M648.825 426.271L626.295 420.44L627.172 417.052L646.798 422.131L649.543 411.526L629.917 406.447L630.794 403.058L653.324 408.89L648.825 426.271Z" fill="#BA9153"/>
<path d="M621.791 433.3C622.319 431.751 623.136 430.521 624.239 429.609C625.343 428.697 626.642 428.14 628.136 427.937C629.63 427.735 631.23 427.924 632.936 428.507C634.65 429.092 636.04 429.922 637.105 430.998C638.171 432.074 638.861 433.311 639.177 434.707C639.493 436.104 639.387 437.576 638.858 439.125C638.33 440.674 637.514 441.904 636.41 442.816C635.306 443.728 634.004 444.284 632.502 444.484C631.001 444.685 629.394 444.492 627.68 443.907C625.974 443.325 624.592 442.497 623.533 441.423C622.475 440.35 621.788 439.115 621.472 437.718C621.156 436.321 621.262 434.849 621.791 433.3ZM624.487 434.232C624.144 435.236 624.125 436.158 624.431 436.999C624.736 437.839 625.276 438.568 626.05 439.185C626.822 439.808 627.739 440.301 628.8 440.663C629.854 441.023 630.877 441.192 631.869 441.17C632.865 441.158 633.745 440.914 634.508 440.438C635.271 439.962 635.823 439.222 636.166 438.218C636.511 437.207 636.528 436.277 636.218 435.426C635.906 434.583 635.36 433.849 634.581 433.223C633.807 432.606 632.893 432.118 631.839 431.758C630.778 431.396 629.752 431.222 628.763 431.237C627.771 431.259 626.897 431.509 626.141 431.987C625.383 432.473 624.832 433.221 624.487 434.232Z" fill="#BA9153"/>
<path d="M613.727 442.452L621.074 445.56L620.521 446.868C620.686 447.333 620.933 447.77 621.261 448.181C621.587 448.598 622.008 449.011 622.527 449.419C623.042 449.834 623.667 450.263 624.401 450.705C625.142 451.15 626.001 451.629 626.977 452.14L632.762 455.179L628.14 466.106L614.775 460.453L613.73 462.923L606.383 459.815L607.676 456.759L612.312 458.72L617.053 447.511L612.417 445.55L613.727 442.452ZM619.104 450.217L616.068 457.397L626.753 461.916L628.896 456.851L625.72 455.113C624.099 454.238 622.72 453.416 621.581 452.646C620.449 451.88 619.624 451.07 619.104 450.217Z" fill="#BA9153"/>
<path d="M609.232 465.574L624.817 473.433L618.405 486.147L602.821 478.287L604.32 475.314L617.287 481.854L620.71 475.066L607.743 468.526L609.232 465.574Z" fill="#BA9153"/>
<path d="M602.747 488.202L609.762 501.282L607.901 504.433L592.873 495.555L594.567 492.688L605.505 499.15L598.462 486.094L600.341 482.914L615.369 491.792L613.675 494.658L602.747 488.202Z" fill="#BA9153"/>
<path d="M604.151 510.62L602.232 513.34L590.374 504.977L586.896 509.908L598.754 518.271L596.835 520.992L584.977 512.628L581.499 517.559L593.358 525.923L591.438 528.644L577.175 518.584L589.888 500.559L604.151 510.62Z" fill="#BA9153"/>
<path d="M575.068 528.792L579.897 542.827L577.555 545.639L564.144 534.468L566.274 531.909L576.036 540.041L571.176 526.024L573.54 523.187L586.952 534.358L584.821 536.916L575.068 528.792Z" fill="#BA9153"/>
<path d="M554.981 543.923C556.145 542.698 557.424 541.907 558.819 541.55C560.214 541.204 561.628 541.262 563.059 541.724C564.491 542.186 565.841 543.019 567.11 544.225C568.395 545.446 569.299 546.765 569.823 548.183C570.352 549.606 570.476 551.02 570.196 552.425C569.916 553.831 569.209 555.13 568.077 556.321C567.163 557.282 566.171 557.969 565.099 558.383C564.032 558.801 562.961 558.938 561.886 558.794C560.805 558.655 559.798 558.225 558.863 557.504L561.141 555.107C561.86 555.539 562.657 555.723 563.534 555.657C564.406 555.598 565.215 555.175 565.962 554.39C566.614 553.703 567.004 552.93 567.133 552.069C567.261 551.219 567.129 550.336 566.736 549.419C566.348 548.507 565.704 547.623 564.803 546.767C563.881 545.891 562.951 545.274 562.015 544.917C561.079 544.561 560.184 544.463 559.331 544.624C558.473 544.79 557.712 545.222 557.049 545.92C556.606 546.386 556.289 546.89 556.099 547.431C555.909 547.982 555.854 548.541 555.933 549.107C556.006 549.678 556.221 550.233 556.578 550.77L554.3 553.167C553.565 552.302 553.088 551.341 552.868 550.286C552.648 549.231 552.709 548.155 553.051 547.058C553.388 545.967 554.031 544.922 554.981 543.923Z" fill="#BA9153"/>
<path d="M552.594 563.087L548.87 566.525C547.3 567.974 545.732 568.7 544.167 568.701C542.601 568.703 541.251 568.089 540.115 566.859C539.375 566.057 538.899 565.161 538.687 564.172C538.474 563.182 538.56 562.164 538.945 561.118C539.335 560.078 540.054 559.074 541.1 558.108L546.703 552.936L558.542 565.762L556.096 568.02L546.245 557.349L543.089 560.263C542.371 560.925 541.953 561.657 541.835 562.456C541.723 563.261 541.936 563.956 542.476 564.54C543.046 565.158 543.742 565.449 544.564 565.412C545.391 565.381 546.163 565.034 546.881 564.371L550.605 560.933L552.594 563.087Z" fill="#BA9153"/>
<path d="M517.967 591.506L516.219 589.139L524.518 583.009L526.267 585.376L517.967 591.506Z" fill="#BA9153"/>
<path d="M480.866 627.712L470.003 607.13L473.098 605.496L482.561 623.425L492.249 618.312L482.786 600.383L485.882 598.749L496.744 619.331L480.866 627.712Z" fill="#BA9153"/>
<path d="M457.513 612.434C459.013 611.78 460.471 611.553 461.889 611.753C463.307 611.952 464.595 612.535 465.752 613.502C466.909 614.468 467.848 615.778 468.569 617.43C469.293 619.09 469.617 620.676 469.541 622.189C469.465 623.701 469.018 625.045 468.2 626.22C467.382 627.395 466.223 628.31 464.723 628.964C463.224 629.618 461.765 629.846 460.347 629.646C458.929 629.446 457.64 628.86 456.48 627.886C455.32 626.913 454.378 625.596 453.654 623.937C452.933 622.284 452.612 620.705 452.69 619.2C452.769 617.694 453.218 616.354 454.036 615.179C454.854 614.003 456.013 613.089 457.513 612.434ZM458.643 615.053C457.671 615.477 456.977 616.086 456.563 616.878C456.148 617.671 455.974 618.561 456.041 619.548C456.101 620.538 456.355 621.547 456.804 622.575C457.249 623.596 457.814 624.465 458.499 625.183C459.18 625.911 459.954 626.396 460.82 626.638C461.686 626.88 462.605 626.789 463.577 626.365C464.556 625.938 465.255 625.323 465.674 624.52C466.085 623.721 466.26 622.823 466.196 621.825C466.129 620.838 465.873 619.834 465.428 618.813C464.98 617.785 464.416 616.911 463.738 616.19C463.053 615.472 462.279 614.996 461.416 614.761C460.546 614.529 459.622 614.626 458.643 615.053Z" fill="#BA9153"/>
<path d="M446.819 617.396L447.822 620.163L447.234 620.374C446.778 620.538 446.431 620.771 446.193 621.073C445.951 621.385 445.814 621.812 445.783 622.355C445.752 622.897 445.831 623.601 446.02 624.466C446.212 625.339 446.509 626.416 446.911 627.696L449.228 635.074L437.76 639.182L431.874 622.749L435.009 621.627L439.906 635.299L445.276 633.375L443.533 627.699C443.112 626.321 442.827 625.087 442.678 623.998C442.522 622.911 442.522 621.957 442.679 621.137C442.838 620.323 443.172 619.636 443.679 619.076C444.189 618.524 444.894 618.086 445.792 617.764L446.819 617.396Z" fill="#BA9153"/>
<path d="M418.786 626.312C420.441 625.843 421.966 625.793 423.361 626.162C424.752 626.539 425.954 627.282 426.968 628.388C427.977 629.504 428.728 630.933 429.222 632.675C429.709 634.395 429.818 636.002 429.548 637.496C429.271 638.991 428.657 640.271 427.707 641.336C426.749 642.402 425.49 643.157 423.93 643.598C422.983 643.867 422.02 643.97 421.042 643.909C420.064 643.847 419.126 643.581 418.229 643.111C417.332 642.64 416.528 641.927 415.816 640.972C415.107 640.023 414.536 638.787 414.105 637.264L413.777 636.105L427.126 632.323L427.82 634.772L417.674 637.646C417.917 638.506 418.308 639.219 418.846 639.783C419.386 640.354 420.027 640.743 420.771 640.95C421.507 641.159 422.298 641.143 423.144 640.904C424.062 640.644 424.8 640.191 425.357 639.545C425.909 638.908 426.269 638.176 426.436 637.35C426.598 636.532 426.56 635.704 426.323 634.866L425.781 632.952C425.463 631.83 424.996 630.931 424.379 630.255C423.755 629.581 423.027 629.138 422.195 628.925C421.365 628.719 420.473 628.751 419.518 629.022C418.899 629.197 418.359 629.445 417.898 629.764C417.439 630.091 417.075 630.486 416.804 630.948C416.533 631.41 416.374 631.932 416.326 632.513L413.074 632.831C413.064 631.85 413.282 630.926 413.729 630.059C414.172 629.202 414.82 628.447 415.675 627.795C416.524 627.153 417.562 626.659 418.786 626.312Z" fill="#BA9153"/>
<path d="M409.271 634.022L405.874 634.765C405.677 634.079 405.246 633.611 404.578 633.361C403.904 633.113 403.097 633.092 402.157 633.297C401.202 633.506 400.432 633.887 399.848 634.442C399.265 635.003 399.068 635.717 399.257 636.583C399.371 637.101 399.599 637.524 399.942 637.852C400.279 638.19 400.705 638.415 401.218 638.527C401.724 638.642 402.291 638.63 402.92 638.493L405.695 637.886L406.266 640.495L403.49 641.101C402.55 641.307 401.894 641.675 401.522 642.206C401.149 642.738 401.033 643.325 401.174 643.969C401.326 644.665 401.7 645.169 402.296 645.48C402.885 645.801 403.624 645.865 404.512 645.67C405.415 645.473 406.122 645.105 406.632 644.567C407.145 644.037 407.346 643.45 407.236 642.807L410.589 642.074C410.775 643.034 410.67 643.933 410.271 644.772C409.867 645.62 409.236 646.348 408.376 646.955C407.51 647.57 406.47 648.011 405.256 648.276C403.991 648.553 402.851 648.589 401.837 648.384C400.823 648.179 399.986 647.773 399.325 647.165C398.658 646.559 398.222 645.789 398.018 644.857C397.813 643.917 397.926 643.086 398.357 642.363C398.783 641.65 399.415 641.066 400.254 640.611L400.215 640.433C399.547 640.533 398.918 640.461 398.33 640.217C397.742 639.973 397.239 639.591 396.823 639.069C396.407 638.548 396.117 637.917 395.956 637.177C395.728 636.133 395.819 635.167 396.229 634.279C396.633 633.392 397.296 632.63 398.219 631.994C399.137 631.367 400.243 630.912 401.539 630.629C402.797 630.354 403.968 630.303 405.053 630.477C406.132 630.66 407.043 631.05 407.787 631.648C408.522 632.247 409.017 633.038 409.271 634.022Z" fill="#BA9153"/>
<path d="M380.117 645.2L379.666 642.292L389.008 640.841L389.46 643.75L380.117 645.2ZM389.631 651.071L386.953 633.823L390.243 633.313L392.921 650.561L389.631 651.071ZM378.884 652.74L376.207 635.492L379.486 634.983L382.163 652.231L378.884 652.74Z" fill="#BA9153"/>
<path d="M365.867 636.183C366.969 636.085 367.983 636.201 368.91 636.529C369.837 636.865 370.596 637.402 371.187 638.14C371.77 638.879 372.112 639.819 372.213 640.958C372.3 641.939 372.183 642.763 371.863 643.431C371.542 644.098 371.077 644.645 370.468 645.072C369.86 645.499 369.168 645.842 368.392 646.101C367.617 646.36 366.822 646.575 366.008 646.747C364.978 646.96 364.141 647.133 363.499 647.266C362.857 647.407 362.397 647.581 362.119 647.788C361.841 647.996 361.72 648.303 361.756 648.71L361.763 648.79C361.851 649.778 362.199 650.519 362.805 651.013C363.405 651.507 364.251 651.706 365.345 651.608C366.485 651.507 367.36 651.174 367.972 650.611C368.577 650.055 368.976 649.46 369.171 648.827L372.416 649.268C372.133 650.358 371.658 651.26 370.991 651.973C370.317 652.695 369.518 653.245 368.594 653.624C367.67 654.011 366.683 654.25 365.634 654.344C364.94 654.405 364.197 654.388 363.405 654.291C362.606 654.202 361.848 653.973 361.131 653.603C360.406 653.234 359.789 652.669 359.28 651.908C358.772 651.155 358.461 650.144 358.349 648.877L357.322 637.331L360.627 637.037L360.838 639.414L360.974 639.402C361.154 638.945 361.444 638.486 361.844 638.024C362.244 637.563 362.775 637.162 363.437 636.822C364.099 636.481 364.909 636.269 365.867 636.183ZM365.373 638.965C364.438 639.049 363.654 639.305 363.023 639.733C362.384 640.163 361.918 640.691 361.624 641.318C361.323 641.953 361.203 642.614 361.264 643.301L361.463 645.542C361.573 645.411 361.797 645.277 362.135 645.14C362.466 645.012 362.847 644.891 363.277 644.776C363.709 644.669 364.13 644.567 364.539 644.47C364.95 644.38 365.293 644.304 365.569 644.242C366.218 644.1 366.805 643.907 367.331 643.663C367.849 643.419 368.254 643.098 368.546 642.699C368.831 642.309 368.946 641.812 368.893 641.208C368.818 640.37 368.452 639.764 367.795 639.389C367.139 639.021 366.332 638.88 365.373 638.965Z" fill="#BA9153"/>
<path d="M341.139 637.923L341.476 652.476L345.657 652.379C346.649 652.356 347.416 652.107 347.958 651.633C348.501 651.158 348.763 650.546 348.746 649.796C348.729 649.053 348.461 648.461 347.943 648.018C347.418 647.583 346.693 647.377 345.769 647.398L340.373 647.523L340.309 644.774L345.705 644.649C346.993 644.619 348.111 644.805 349.06 645.208C350.002 645.618 350.735 646.211 351.261 646.987C351.779 647.763 352.05 648.689 352.075 649.764C352.101 650.862 351.865 651.815 351.369 652.622C350.865 653.437 350.133 654.075 349.174 654.537C348.207 654.999 347.057 655.245 345.724 655.276L338.351 655.447L337.947 637.997L341.139 637.923ZM352.591 637.658L347.876 646.588L344.399 646.668L349.114 637.738L352.591 637.658Z" fill="#BA9153"/>
<path d="M319.012 642.217L310.41 654.313L306.761 654.045L308.039 636.637L311.36 636.881L310.429 649.552L318.998 637.442L322.681 637.713L321.403 655.12L318.083 654.876L319.012 642.217Z" fill="#BA9153"/>
<path d="M289.086 644.503L289.493 641.588L298.856 642.895L298.45 645.81L289.086 644.503ZM296.5 652.869L298.913 635.582L302.211 636.043L299.798 653.33L296.5 652.869ZM285.73 651.366L288.143 634.079L291.429 634.538L289.016 651.825L285.73 651.366Z" fill="#BA9153"/>
<path d="M276.919 625.893L270.789 654.459L267.467 653.746L273.596 625.18L276.919 625.893ZM275.746 631.36C276.953 631.619 278.008 632.062 278.912 632.69C279.814 633.325 280.541 634.109 281.092 635.041C281.644 635.973 282 637.021 282.16 638.187C282.313 639.351 282.249 640.589 281.968 641.9C281.684 643.226 281.233 644.388 280.615 645.387C279.991 646.384 279.236 647.194 278.35 647.818C277.465 648.442 276.481 648.858 275.398 649.067C274.314 649.276 273.169 649.251 271.962 648.992L271.14 648.816L274.923 631.183L275.746 631.36ZM275.145 634.16L274.678 634.059L272.096 646.092L272.563 646.192C273.363 646.364 274.094 646.351 274.756 646.152C275.417 645.96 276.004 645.625 276.518 645.147C277.03 644.675 277.463 644.098 277.819 643.415C278.167 642.731 278.428 641.985 278.601 641.177C278.834 640.096 278.873 639.062 278.721 638.077C278.566 637.098 278.197 636.256 277.613 635.549C277.027 634.85 276.204 634.387 275.145 634.16ZM272.423 630.647L273.257 630.826L269.473 648.458L268.64 648.279C267.432 648.02 266.378 647.573 265.476 646.938C264.574 646.303 263.851 645.52 263.306 644.59C262.755 643.658 262.403 642.61 262.249 641.446C262.089 640.28 262.151 639.034 262.435 637.708C262.717 636.397 263.17 635.243 263.794 634.246C264.412 633.247 265.163 632.436 266.048 631.812C266.926 631.187 267.907 630.77 268.99 630.561C270.072 630.359 271.216 630.388 272.423 630.647ZM271.823 633.447C271.023 633.275 270.293 633.281 269.634 633.465C268.973 633.656 268.386 633.988 267.875 634.459C267.361 634.938 266.931 635.516 266.584 636.193C266.236 636.877 265.975 637.623 265.802 638.431C265.571 639.505 265.533 640.535 265.685 641.521C265.829 642.512 266.193 643.361 266.777 644.068C267.36 644.782 268.181 645.252 269.24 645.48L269.718 645.582L272.3 633.549L271.823 633.447Z" fill="#BA9153"/>
<path d="M252.994 625.705C254.565 626.163 255.831 626.923 256.792 627.984C257.753 629.045 258.368 630.318 258.638 631.801C258.909 633.284 258.791 634.891 258.287 636.622C257.78 638.361 257.014 639.786 255.987 640.9C254.96 642.013 253.756 642.759 252.375 643.138C250.995 643.516 249.519 643.477 247.948 643.019C246.377 642.561 245.111 641.802 244.149 640.74C243.188 639.679 242.574 638.403 242.306 636.912C242.038 635.422 242.157 633.807 242.664 632.069C243.168 630.338 243.933 628.92 244.958 627.814C245.982 626.708 247.185 625.965 248.566 625.587C249.947 625.208 251.423 625.247 252.994 625.705ZM252.185 628.44C251.166 628.144 250.244 628.167 249.418 628.51C248.592 628.853 247.889 629.426 247.308 630.227C246.72 631.026 246.269 631.964 245.956 633.04C245.644 634.109 245.521 635.139 245.588 636.129C245.645 637.124 245.929 637.992 246.439 638.732C246.949 639.473 247.713 639.992 248.732 640.288C249.757 640.587 250.688 640.563 251.523 640.214C252.351 639.864 253.06 639.285 253.65 638.479C254.231 637.677 254.677 636.742 254.989 635.673C255.303 634.597 255.43 633.564 255.37 632.577C255.304 631.587 255.014 630.725 254.502 629.992C253.983 629.256 253.21 628.739 252.185 628.44Z" fill="#BA9153"/>
<path d="M242.595 616.05L234.333 638.583L231.218 637.441L232.192 634.784L231.925 634.686C231.615 634.96 231.203 635.257 230.691 635.577C230.178 635.898 229.551 636.111 228.809 636.219C228.065 636.333 227.185 636.204 226.168 635.831C224.845 635.346 223.786 634.579 222.993 633.529C222.2 632.48 221.739 631.218 221.61 629.742C221.474 628.264 221.731 626.64 222.381 624.869C223.03 623.098 223.882 621.687 224.937 620.638C225.989 619.595 227.155 618.922 228.437 618.617C229.716 618.319 231.017 618.413 232.34 618.898C233.336 619.263 234.089 619.729 234.6 620.296C235.103 620.859 235.45 621.431 235.641 622.009C235.833 622.588 235.961 623.086 236.025 623.505L236.217 623.576L239.405 614.88L242.595 616.05ZM234.211 629.243C234.634 628.091 234.837 627.02 234.821 626.029C234.805 625.039 234.57 624.182 234.117 623.459C233.662 622.744 232.975 622.217 232.057 621.881C231.104 621.532 230.215 621.492 229.39 621.762C228.562 622.04 227.824 622.556 227.176 623.311C226.521 624.063 225.992 624.987 225.591 626.082C225.194 627.163 225.002 628.194 225.014 629.175C225.018 630.153 225.253 631.009 225.717 631.744C226.175 632.477 226.884 633.019 227.844 633.372C228.769 633.711 229.638 633.759 230.453 633.517C231.261 633.273 231.985 632.784 232.625 632.05C233.265 631.317 233.794 630.381 234.211 629.243Z" fill="#BA9153"/>
<path d="M210.565 614.822L199.918 624.517L197.253 623.295L211.171 610.474L213.464 611.526L212.696 630.376L210.062 629.168L210.565 614.822ZM210.919 629.561L218.195 613.696L221.221 615.083L213.945 630.949L210.919 629.561ZM206.357 608.267L199.082 624.133L196.076 622.755L203.351 606.889L206.357 608.267Z" fill="#BA9153"/>
<path d="M193.72 601.303C194.688 601.837 195.465 602.499 196.05 603.289C196.632 604.086 196.961 604.955 197.038 605.898C197.109 606.836 196.868 607.806 196.315 608.808C195.84 609.67 195.282 610.289 194.643 610.663C194.004 611.037 193.313 611.231 192.57 611.245C191.827 611.259 191.061 611.157 190.273 610.939C189.485 610.72 188.706 610.455 187.935 610.142C186.961 609.743 186.171 609.42 185.564 609.172C184.953 608.93 184.474 608.817 184.128 608.834C183.781 608.85 183.509 609.038 183.312 609.396L183.273 609.465C182.794 610.334 182.668 611.143 182.895 611.891C183.116 612.636 183.707 613.274 184.669 613.804C185.671 614.357 186.583 614.57 187.405 614.444C188.217 614.321 188.881 614.051 189.396 613.635L191.841 615.814C190.997 616.559 190.099 617.042 189.148 617.261C188.186 617.483 187.216 617.493 186.237 617.291C185.255 617.095 184.303 616.743 183.381 616.234C182.77 615.898 182.164 615.468 181.561 614.945C180.948 614.425 180.447 613.812 180.059 613.104C179.664 612.393 179.468 611.58 179.471 610.664C179.471 609.756 179.778 608.744 180.392 607.63L185.991 597.481L188.897 599.083L187.744 601.173L187.863 601.239C188.268 600.96 188.765 600.741 189.355 600.582C189.944 600.423 190.609 600.387 191.348 600.474C192.087 600.562 192.877 600.838 193.72 601.303ZM191.756 603.334C190.933 602.88 190.14 602.655 189.377 602.658C188.608 602.657 187.926 602.835 187.332 603.191C186.727 603.549 186.258 604.03 185.925 604.634L184.839 606.604C185.003 606.557 185.264 606.571 185.62 606.646C185.966 606.724 186.35 606.837 186.771 606.983C187.189 607.135 187.595 607.285 187.989 607.434C188.379 607.588 188.706 607.717 188.97 607.819C189.588 608.065 190.183 608.233 190.755 608.324C191.321 608.411 191.837 608.371 192.301 608.203C192.756 608.038 193.129 607.691 193.422 607.16C193.828 606.424 193.863 605.717 193.528 605.038C193.189 604.367 192.598 603.799 191.756 603.334Z" fill="#BA9153"/>
<path d="M159.556 601.495L167.522 589.176L165.375 587.787L169.941 580.726L172.756 582.546L169.702 587.27L180.991 594.569L171.513 609.226L168.717 607.419L176.603 595.223L170.228 591.101L162.343 603.297L159.556 601.495Z" fill="#BA9153"/>
<path d="M157.477 584.546L143.707 590.085L140.779 587.889L151.252 573.926L153.916 575.923L146.293 586.087L160.043 580.519L162.998 582.735L152.525 596.698L149.861 594.701L157.477 584.546Z" fill="#BA9153"/>
<path d="M138.812 563.535L129.333 574.583L132.507 577.306C133.26 577.952 133.997 578.28 134.718 578.29C135.439 578.299 136.043 578.019 136.531 577.45C137.015 576.886 137.212 576.267 137.123 575.591C137.023 574.917 136.622 574.278 135.92 573.677L131.824 570.162L133.614 568.075L137.711 571.589C138.688 572.428 139.396 573.314 139.832 574.248C140.258 575.182 140.407 576.114 140.28 577.042C140.146 577.966 139.729 578.836 139.029 579.652C138.314 580.486 137.501 581.037 136.593 581.305C135.673 581.574 134.702 581.56 133.68 581.262C132.652 580.959 131.632 580.374 130.62 579.505L125.023 574.703L136.388 561.456L138.812 563.535ZM147.505 570.993L138.029 574.482L135.39 572.218L144.866 568.729L147.505 570.993Z" fill="#BA9153"/>
<path d="M99.4712 539.811L101.677 537.862L108.509 545.595L106.303 547.544L99.4712 539.811Z" fill="#BA9153"/>
<path d="M60.1177 506.039L79.6607 493.402L81.5611 496.341L64.5374 507.349L70.4856 516.548L87.5094 505.54L89.4099 508.479L69.8669 521.116L60.1177 506.039Z" fill="#BA9153"/>
<path d="M73.3675 481.621C74.1526 483.057 74.5087 484.49 74.4358 485.92C74.363 487.35 73.8967 488.684 73.0371 489.923C72.1774 491.161 70.9566 492.213 69.3746 493.078C67.786 493.947 66.2351 494.411 64.7218 494.47C63.2085 494.529 61.8303 494.203 60.587 493.493C59.3438 492.782 58.3296 491.709 57.5446 490.274C56.7595 488.838 56.4033 487.405 56.4762 485.975C56.5491 484.545 57.0186 483.209 57.8849 481.967C58.7513 480.725 59.9787 479.669 61.5673 478.8C63.1493 477.935 64.6936 477.475 66.2002 477.42C67.7068 477.364 69.0818 477.692 70.325 478.402C71.5682 479.112 72.5824 480.185 73.3675 481.621ZM70.8595 482.98C70.3506 482.049 69.6831 481.413 68.8568 481.07C68.0305 480.727 67.1287 480.633 66.1512 480.788C65.17 480.936 64.1876 481.279 63.2039 481.817C62.2268 482.351 61.4112 482.991 60.7572 483.738C60.0929 484.481 59.6787 485.294 59.5146 486.179C59.3505 487.063 59.5228 487.97 60.0317 488.901C60.5442 489.838 61.2187 490.479 62.0552 490.825C62.8881 491.164 63.7985 491.257 64.7863 491.106C65.7638 490.951 66.7411 490.607 67.7181 490.072C68.7019 489.534 69.5226 488.896 70.1802 488.156C70.8342 487.41 71.24 486.597 71.3974 485.716C71.5513 484.829 71.372 483.917 70.8595 482.98Z" fill="#BA9153"/>
<path d="M72.1506 469.639L64.8995 472.964L64.3074 471.673C63.8528 471.481 63.3634 471.368 62.8392 471.333C62.3117 471.292 61.7225 471.325 61.0714 471.432C60.4172 471.532 59.6792 471.703 58.8574 471.947C58.0288 472.194 57.0962 472.504 56.0598 472.88L49.9138 475.098L44.9686 464.314L58.1591 458.265L57.0412 455.828L64.2924 452.502L65.6755 455.518L61.0996 457.617L66.1727 468.68L70.7486 466.581L72.1506 469.639ZM62.7916 468.367L59.5422 461.281L48.9961 466.118L51.2886 471.117L54.7146 469.946C56.4537 469.34 57.9914 468.877 59.3276 468.556C60.657 468.238 61.8117 468.175 62.7916 468.367Z" fill="#BA9153"/>
<path d="M58.1471 450.767L41.8282 456.96L36.7761 443.648L53.095 437.455L54.2763 440.568L40.6985 445.721L43.3959 452.828L56.9737 447.675L58.1471 450.767Z" fill="#BA9153"/>
<path d="M45.802 430.62L31.4207 426.949L30.357 423.448L47.0579 418.374L48.0257 421.56L35.8698 425.253L50.2521 428.888L51.3256 432.422L34.6247 437.496L33.6569 434.31L45.802 430.62Z" fill="#BA9153"/>
<path d="M28.4322 416.914L27.7212 413.661L41.8979 410.562L40.6094 404.667L26.4327 407.766L25.7217 404.513L39.8984 401.415L38.6099 395.52L24.4333 398.618L23.7223 395.366L40.7742 391.638L45.4841 413.187L28.4322 416.914Z" fill="#BA9153"/>
<path d="M34.6912 383.354L21.079 377.437L20.5871 373.811L37.8832 371.464L38.3308 374.764L25.7416 376.472L39.3604 382.353L39.8569 386.013L22.5608 388.359L22.1132 385.06L34.6912 383.354Z" fill="#BA9153"/>
<path d="M37.04 357.49C37.1507 359.176 36.8643 360.652 36.1807 361.92C35.4891 363.18 34.4881 364.179 33.1776 364.918C31.8672 365.657 30.3389 366.084 28.5926 366.199C26.8237 366.315 25.2408 366.085 23.844 365.509C22.4396 364.933 21.3159 364.065 20.473 362.906C19.63 361.746 19.1547 360.346 19.0469 358.706C18.96 357.383 19.1283 356.188 19.5516 355.12C19.9674 354.052 20.5929 353.172 21.4281 352.48C22.2628 351.78 23.262 351.331 24.4258 351.133L24.6425 354.432C23.838 354.667 23.1623 355.129 22.6153 355.818C22.0679 356.5 21.8297 357.381 21.9007 358.462C21.9628 359.407 22.2666 360.218 22.8122 360.896C23.3497 361.567 24.0887 362.068 25.0293 362.402C25.9622 362.735 27.0486 362.861 28.2883 362.78C29.5583 362.696 30.6418 362.431 31.5387 361.985C32.4356 361.539 33.1143 360.948 33.5746 360.212C34.0344 359.468 34.2328 358.616 34.1697 357.656C34.1275 357.013 33.9721 356.439 33.7035 355.933C33.4268 355.419 33.0538 355 32.5845 354.674C32.1147 354.34 31.5613 354.122 30.9244 354.02L30.7077 350.72C31.842 350.767 32.8715 351.068 33.7962 351.622C34.7208 352.176 35.4702 352.951 36.0442 353.946C36.6177 354.933 36.9497 356.114 37.04 357.49Z" fill="#BA9153"/>
<path d="M24.5455 342.276V337.208C24.5455 335.072 25.0758 333.428 26.1364 332.276C27.197 331.125 28.5644 330.549 30.2386 330.549C31.3295 330.549 32.3106 330.807 33.1818 331.322C34.053 331.837 34.7424 332.591 35.25 333.583C35.75 334.576 36 335.784 36 337.208V344.833H18.5455V341.504H33.0682V337.208C33.0682 336.231 32.8144 335.428 32.3068 334.799C31.7917 334.17 31.1364 333.856 30.3409 333.856C29.5 333.856 28.8144 334.17 28.2841 334.799C27.7462 335.428 27.4773 336.231 27.4773 337.208V342.276H24.5455Z" fill="#BA9153"/>
<path d="M28.3277 288.983L31.2427 289.39L29.8163 299.609L26.9014 299.202L28.3277 288.983Z" fill="#BA9153"/>
<path d="M28.1808 237.504L50.4992 244.1L49.5072 247.457L30.0658 241.711L26.9609 252.216L46.4023 257.962L45.4103 261.319L23.0919 254.722L28.1808 237.504Z" fill="#BA9153"/>
<path d="M55.3515 231.564C54.7709 233.094 53.9136 234.296 52.7796 235.17C51.6457 236.044 50.3287 236.557 48.8287 236.709C47.3287 236.861 45.7359 236.617 44.0502 235.977C42.3574 235.335 40.9967 234.458 39.9681 233.347C38.9395 232.235 38.2909 230.976 38.0225 229.57C37.7541 228.163 37.9102 226.695 38.4908 225.165C39.0714 223.635 39.9287 222.433 41.0627 221.559C42.1966 220.685 43.5171 220.173 45.0242 220.024C46.5313 219.874 48.1312 220.121 49.824 220.763C51.5097 221.403 52.8633 222.278 53.8848 223.386C54.9064 224.495 55.5513 225.753 55.8198 227.159C56.0882 228.566 55.9321 230.034 55.3515 231.564ZM52.6888 230.541C53.0652 229.55 53.1149 228.629 52.8381 227.778C52.5612 226.927 52.0464 226.181 51.2934 225.539C50.5432 224.889 49.644 224.366 48.5957 223.968C47.5545 223.573 46.5379 223.369 45.5457 223.357C44.5492 223.336 43.6616 223.55 42.8831 224C42.1046 224.45 41.5272 225.171 41.1509 226.162C40.7719 227.161 40.723 228.091 41.0042 228.951C41.2881 229.804 41.8087 230.557 42.5661 231.209C43.319 231.851 44.216 232.37 45.2572 232.765C46.3055 233.163 47.3243 233.371 48.3138 233.39C49.3059 233.402 50.1877 233.182 50.9592 232.729C51.7333 232.269 52.3098 231.54 52.6888 230.541Z" fill="#BA9153"/>
<path d="M59.6092 219.524L56.9338 218.298L57.1964 217.731C57.4001 217.291 57.4777 216.88 57.4289 216.498C57.3765 216.107 57.168 215.71 56.8035 215.307C56.4389 214.904 55.8818 214.467 55.1321 213.995C54.3755 213.519 53.4 212.975 52.2055 212.364L45.3226 208.838L50.4416 197.784L66.2803 205.119L64.8811 208.14L51.7029 202.037L49.3057 207.214L54.5738 209.954C55.8513 210.621 56.9303 211.283 57.811 211.942C58.6948 212.593 59.3741 213.262 59.8489 213.95C60.3169 214.634 60.5723 215.353 60.6152 216.108C60.6513 216.859 60.4688 217.668 60.0677 218.534L59.6092 219.524Z" fill="#BA9153"/>
<path d="M72.0774 194.721C71.2579 196.233 70.2291 197.36 68.991 198.102C67.7499 198.834 66.3792 199.177 64.879 199.131C63.3758 199.074 61.8283 198.615 60.2365 197.752C58.6647 196.9 57.4382 195.856 56.557 194.62C55.6795 193.377 55.1914 192.044 55.0927 190.621C54.9976 189.19 55.3364 187.763 56.1089 186.337C56.5782 185.472 57.1763 184.71 57.9031 184.053C58.63 183.395 59.4748 182.91 60.4378 182.596C61.4007 182.282 62.4728 182.204 63.654 182.361C64.8286 182.516 66.1118 182.97 67.5038 183.724L68.5628 184.298L61.9509 196.497L59.713 195.284L64.7383 186.013C63.9524 185.587 63.1698 185.369 62.3904 185.36C61.6044 185.348 60.8778 185.536 60.2107 185.924C59.5473 186.305 59.0062 186.882 58.5874 187.655C58.1325 188.494 57.9419 189.339 58.0155 190.189C58.086 191.028 58.3589 191.797 58.8341 192.494C59.3063 193.18 59.9254 193.731 60.6913 194.147L62.4397 195.094C63.4653 195.65 64.4353 195.943 65.3496 195.973C66.2674 195.997 67.0931 195.785 67.8265 195.338C68.5533 194.888 69.1531 194.226 69.626 193.354C69.9329 192.788 70.1328 192.228 70.2256 191.675C70.3118 191.119 70.2838 190.582 70.1416 190.066C69.9993 189.549 69.7372 189.071 69.3551 188.631L71.3971 186.08C72.1069 186.758 72.616 187.56 72.9244 188.485C73.2297 189.4 73.3172 190.391 73.187 191.458C73.0538 192.515 72.6839 193.603 72.0774 194.721Z" fill="#BA9153"/>
<path d="M73.3953 182.049L75.2404 179.102C75.8681 179.441 76.5045 179.46 77.1495 179.158C77.7986 178.849 78.3784 178.287 78.8889 177.471C79.4074 176.643 79.673 175.826 79.6856 175.021C79.6919 174.211 79.3193 173.571 78.568 173.101C78.1185 172.82 77.6565 172.687 77.1819 172.703C76.7049 172.708 76.2466 172.854 75.8072 173.142C75.3717 173.424 74.9832 173.838 74.6415 174.383L73.1341 176.791L70.8705 175.374L72.378 172.966C72.8885 172.151 73.0841 171.424 72.9649 170.787C72.8457 170.149 72.5068 169.655 71.9482 169.306C71.3446 168.928 70.7231 168.843 70.0837 169.05C69.442 169.247 68.8799 169.731 68.3975 170.502C67.9071 171.285 67.6757 172.047 67.7033 172.788C67.7244 173.526 68.0031 174.08 68.5392 174.451L66.7183 177.36C65.902 176.822 65.3331 176.118 65.0117 175.246C64.688 174.364 64.6099 173.404 64.7777 172.365C64.9431 171.315 65.3554 170.264 66.0147 169.211C66.702 168.113 67.4735 167.273 68.3292 166.691C69.1848 166.11 70.0608 165.796 70.957 165.749C71.8572 165.696 72.7119 165.923 73.521 166.429C74.3365 166.94 74.8515 167.602 75.0662 168.415C75.2784 169.218 75.2537 170.079 74.992 170.997L75.1461 171.093C75.5424 170.546 76.0334 170.147 76.619 169.897C77.2045 169.647 77.8294 169.555 78.4934 169.622C79.1575 169.689 79.8106 169.924 80.4527 170.326C81.3581 170.893 81.9848 171.634 82.3326 172.548C82.6845 173.457 82.7649 174.464 82.5738 175.568C82.3802 176.663 81.9317 177.772 81.2283 178.896C80.5449 179.987 79.7617 180.86 78.8787 181.514C77.9933 182.157 77.0772 182.536 76.1304 182.649C75.1875 182.756 74.2758 182.556 73.3953 182.049Z" fill="#BA9153"/>
<path d="M86.0037 152.969L88.3964 154.683L82.8908 162.369L80.4981 160.655L86.0037 152.969ZM75.1508 155.65L89.3406 165.815L87.4017 168.521L73.2119 158.357L75.1508 155.65ZM81.4836 146.809L95.6733 156.974L93.7411 159.671L79.5513 149.507L81.4836 146.809Z" fill="#BA9153"/>
<path d="M102.709 148.615C102.008 149.47 101.215 150.113 100.332 150.544C99.4427 150.971 98.5278 151.136 97.5871 151.041C96.6513 150.939 95.7412 150.525 94.857 149.8C94.0957 149.175 93.5892 148.514 93.3376 147.818C93.086 147.121 93.021 146.406 93.1425 145.673C93.2641 144.94 93.504 144.206 93.8622 143.471C94.2205 142.736 94.6235 142.018 95.0712 141.317C95.6407 140.432 96.1029 139.713 96.4576 139.162C96.8065 138.605 97.0044 138.155 97.0513 137.811C97.0982 137.468 96.9636 137.166 96.6473 136.906L96.5858 136.856C95.8187 136.226 95.0465 135.955 94.2692 136.043C93.4967 136.124 92.762 136.589 92.0651 137.439C91.3394 138.323 90.9637 139.181 90.9379 140.012C90.9111 140.833 91.0556 141.535 91.3713 142.117L88.7834 144.124C88.2038 143.159 87.8929 142.188 87.8507 141.212C87.8074 140.226 87.9743 139.271 88.3515 138.345C88.7228 137.415 89.2425 136.543 89.9105 135.729C90.3527 135.19 90.8857 134.672 91.5096 134.175C92.1324 133.667 92.8269 133.286 93.5933 133.033C94.3644 132.774 95.1998 132.729 96.0993 132.899C96.9929 133.064 97.9316 133.55 98.9155 134.358L107.875 141.711L105.77 144.276L103.926 142.762L103.839 142.868C104.039 143.316 104.164 143.845 104.213 144.454C104.262 145.062 104.177 145.722 103.956 146.433C103.735 147.144 103.32 147.871 102.709 148.615ZM101.07 146.313C101.666 145.587 102.032 144.849 102.168 144.098C102.309 143.341 102.258 142.638 102.017 141.989C101.774 141.33 101.386 140.781 100.853 140.344L99.1141 138.916C99.1309 139.087 99.0697 139.34 98.9307 139.677C98.7905 140.003 98.6103 140.36 98.3902 140.748C98.1641 141.131 97.9423 141.502 97.7249 141.863C97.5015 142.219 97.3156 142.517 97.167 142.758C96.8133 143.32 96.5396 143.874 96.3458 144.421C96.1568 144.962 96.1025 145.476 96.1828 145.963C96.262 146.44 96.5359 146.87 97.0044 147.255C97.6544 147.788 98.3434 147.952 99.0712 147.746C99.7933 147.534 100.459 147.057 101.07 146.313Z" fill="#BA9153"/>
<path d="M117.85 130.66L107.19 120.748L104.342 123.81C103.666 124.537 103.309 125.26 103.271 125.98C103.233 126.699 103.488 127.315 104.038 127.825C104.581 128.331 105.193 128.553 105.871 128.49C106.549 128.418 107.203 128.043 107.832 127.366L111.508 123.413L113.522 125.286L109.846 129.238C108.969 130.182 108.056 130.853 107.105 131.252C106.154 131.64 105.218 131.752 104.295 131.587C103.378 131.417 102.525 130.965 101.737 130.233C100.933 129.485 100.415 128.651 100.183 127.732C99.9508 126.803 100.004 125.833 100.343 124.824C100.686 123.809 101.312 122.813 102.22 121.837L107.242 116.436L120.024 128.322L117.85 130.66ZM110.05 139.049L106.943 129.44L109.311 126.894L112.418 136.502L110.05 139.049Z" fill="#BA9153"/>
<path d="M129.773 112.117L127.081 97.5211L129.814 95.0884L141.418 108.127L138.931 110.341L130.485 100.85L133.21 115.432L130.451 117.888L118.847 104.849L121.334 102.636L129.773 112.117Z" fill="#BA9153"/>
<path d="M148.677 89.2245L150.486 91.5465L143.027 97.3561L141.218 95.0342L148.677 89.2245ZM137.509 88.7189L148.235 102.489L145.608 104.535L134.882 90.7649L137.509 88.7189ZM146.089 82.0364L156.814 95.8068L154.197 97.8458L143.471 84.0754L146.089 82.0364Z" fill="#BA9153"/>
<path d="M171.268 92.8502L155.046 68.5517L157.872 66.6651L174.094 90.9636L171.268 92.8502ZM168.164 88.2003C167.137 88.8859 166.083 89.3342 165.003 89.545C163.919 89.7495 162.851 89.725 161.798 89.4715C160.745 89.2179 159.745 88.7427 158.797 88.0457C157.855 87.3446 157.012 86.4364 156.267 85.3211C155.514 84.1933 154.995 83.0601 154.708 81.9215C154.428 80.7786 154.373 79.6724 154.542 78.6028C154.712 77.5333 155.099 76.5371 155.703 75.6143C156.308 74.6915 157.123 73.8872 158.15 73.2016L158.85 72.7347L168.863 87.7334L168.164 88.2003ZM166.574 85.8187L166.971 85.5536L160.137 75.3182L159.74 75.5832C159.06 76.0375 158.56 76.5716 158.241 77.1853C157.918 77.7927 157.749 78.4474 157.735 79.1491C157.717 79.8446 157.828 80.5579 158.071 81.2889C158.319 82.0158 158.672 82.7226 159.131 83.4093C159.745 84.3292 160.459 85.0778 161.272 85.6551C162.082 86.2261 162.943 86.548 163.857 86.621C164.767 86.6876 165.673 86.4202 166.574 85.8187ZM170.99 86.3137L170.281 86.7869L160.267 71.7882L160.976 71.315C162.003 70.6294 163.059 70.1843 164.143 69.9798C165.227 69.7753 166.292 69.8019 167.339 70.0596C168.392 70.3132 169.389 70.7905 170.331 71.4917C171.279 72.1886 172.129 73.101 172.882 74.2288C173.627 75.3441 174.139 76.4731 174.419 77.6159C174.706 78.7545 174.764 79.8587 174.595 80.9282C174.432 81.9936 174.048 82.9877 173.443 83.9105C172.834 84.827 172.017 85.6281 170.99 86.3137ZM169.4 83.9321C170.08 83.4778 170.584 82.9501 170.911 82.3489C171.235 81.7415 171.405 81.09 171.424 80.3945C171.438 79.6927 171.323 78.9816 171.079 78.2611C170.83 77.5342 170.477 76.8274 170.018 76.1407C169.409 75.2271 168.697 74.4816 167.883 73.9043C167.072 73.3166 166.209 72.9862 165.295 72.9133C164.377 72.834 163.467 73.0952 162.566 73.6967L162.16 73.968L168.993 84.2034L169.4 83.9321Z" fill="#BA9153"/>
<path d="M186.358 76.7601C184.937 77.5716 183.511 77.9541 182.08 77.9076C180.649 77.8611 179.307 77.4196 178.052 76.5829C176.798 75.7462 175.724 74.545 174.83 72.9793C173.932 71.407 173.44 69.8649 173.353 68.3529C173.266 66.841 173.566 65.457 174.253 64.2009C174.941 62.9447 175.995 61.911 177.416 61.0995C178.837 60.2881 180.263 59.9056 181.694 59.9521C183.125 59.9985 184.469 60.4434 185.727 61.2866C186.985 62.1299 188.063 63.3376 188.961 64.91C189.855 66.4757 190.344 68.0112 190.427 69.5166C190.51 71.0219 190.208 72.4027 189.521 73.6588C188.834 74.9149 187.779 75.9487 186.358 76.7601ZM184.954 74.2776C185.875 73.7517 186.499 73.0725 186.826 72.2401C187.154 71.4076 187.231 70.5042 187.058 69.5297C186.892 68.5515 186.531 67.5755 185.975 66.6019C185.423 65.6348 184.768 64.8312 184.01 64.1911C183.254 63.5406 182.433 63.1415 181.546 62.9937C180.659 62.8459 179.755 63.035 178.834 63.5609C177.907 64.0906 177.278 64.7768 176.948 65.6196C176.624 66.4586 176.547 67.3705 176.717 68.3553C176.89 69.3298 177.252 70.3006 177.804 71.2677C178.36 72.2413 179.014 73.0501 179.766 73.694C180.524 74.3341 181.345 74.7248 182.228 74.866C183.118 75.0034 184.026 74.8073 184.954 74.2776Z" fill="#BA9153"/>
<path d="M201.462 75.3872L191.054 53.7615L194.044 52.3225L195.271 54.8722L195.527 54.749C195.547 54.3359 195.62 53.8338 195.748 53.2428C195.875 52.6518 196.159 52.0529 196.598 51.4462C197.034 50.8328 197.741 50.2911 198.717 49.8213C199.987 49.2102 201.274 48.9857 202.58 49.1477C203.885 49.3098 205.112 49.8585 206.26 50.7941C207.415 51.7264 208.401 53.0424 209.219 54.7422C210.037 56.4419 210.456 58.0357 210.474 59.5234C210.489 61.0044 210.159 62.3107 209.485 63.4424C208.807 64.5673 207.833 65.4352 206.563 66.0463C205.608 66.5063 204.749 66.722 203.987 66.6936C203.232 66.6618 202.58 66.5131 202.032 66.2473C201.484 65.9815 201.037 65.7257 200.691 65.4799L200.507 65.5686L204.524 73.9138L201.462 75.3872ZM197.839 60.1815C198.371 61.2874 198.998 62.1795 199.72 62.8579C200.441 63.5363 201.219 63.9648 202.053 64.1434C202.884 64.3152 203.74 64.1892 204.621 63.7654C205.535 63.3252 206.183 62.7149 206.565 61.9346C206.942 61.1474 207.086 60.2584 206.996 59.2677C206.913 58.2736 206.618 57.251 206.112 56.1997C205.613 55.1621 205.007 54.3059 204.296 53.631C203.591 52.9529 202.813 52.5244 201.962 52.3455C201.118 52.1633 200.235 52.294 199.313 52.7375C198.426 53.1646 197.785 53.7547 197.391 54.5077C197.003 55.2575 196.85 56.1175 196.93 57.0878C197.01 58.0581 197.313 59.0893 197.839 60.1815Z" fill="#BA9153"/>
<path d="M225.283 52.9052L225.743 38.5136L228.476 37.4528L227.98 56.3685L225.628 57.2813L212.639 43.5996L215.34 42.5511L225.283 52.9052ZM214.461 42.8924L220.776 59.1644L217.672 60.3691L211.357 44.0971L214.461 42.8924ZM232.917 54.4525L226.601 38.1805L229.684 36.984L235.999 53.256L232.917 54.4525Z" fill="#BA9153"/>
<path d="M246.594 50.2219C245.536 50.5434 244.519 50.6384 243.545 50.5068C242.569 50.368 241.716 49.9976 240.987 49.3957C240.265 48.7916 239.738 47.9423 239.405 46.8477C239.119 45.9054 239.064 45.0747 239.242 44.3557C239.419 43.6368 239.762 43.0061 240.27 42.4637C240.779 41.9214 241.386 41.444 242.092 41.0315C242.798 40.6191 243.532 40.2457 244.293 39.9115C245.258 39.4916 246.041 39.1507 246.643 38.8889C247.242 38.6198 247.656 38.3553 247.886 38.0954C248.116 37.8356 248.172 37.5099 248.053 37.1185L248.03 37.0424C247.741 36.0928 247.249 35.4386 246.554 35.0796C245.867 34.7185 244.997 34.6975 243.946 35.0169C242.852 35.3494 242.063 35.8542 241.58 36.5315C241.102 37.1993 240.832 37.8631 240.772 38.5229L237.505 38.7552C237.559 37.6303 237.839 36.6504 238.346 35.8156C238.857 34.9714 239.527 34.2692 240.354 33.7091C241.179 33.1416 242.096 32.7049 243.103 32.3988C243.77 32.1962 244.501 32.0612 245.296 31.9939C246.096 31.9171 246.885 31.9862 247.663 32.2012C248.448 32.414 249.168 32.8407 249.822 33.4813C250.473 34.1147 250.984 35.0403 251.354 36.258L254.723 47.3485L251.549 48.313L250.855 46.0297L250.724 46.0693C250.642 46.5536 250.452 47.0626 250.155 47.5962C249.858 48.1298 249.42 48.631 248.842 49.0996C248.264 49.5681 247.515 49.9423 246.594 50.2219ZM246.508 47.3977C247.407 47.1247 248.121 46.7136 248.651 46.1647C249.188 45.6135 249.537 45.001 249.696 44.327C249.861 43.6436 249.843 42.9721 249.642 42.3125L248.988 40.1596C248.908 40.3109 248.716 40.4878 248.413 40.6906C248.116 40.884 247.768 41.0807 247.369 41.2809C246.969 41.4739 246.578 41.6599 246.197 41.839C245.814 42.0109 245.493 42.1557 245.236 42.2734C244.63 42.5447 244.094 42.8539 243.63 43.2009C243.172 43.5457 242.842 43.943 242.638 44.3929C242.439 44.8333 242.428 45.3435 242.604 45.9234C242.849 46.728 243.331 47.2466 244.051 47.4792C244.768 47.7045 245.587 47.6774 246.508 47.3977Z" fill="#BA9153"/>
<path d="M269.991 25.597L273.287 39.8923L275.779 39.3178L277.668 47.5119L274.402 48.2651L273.138 42.784L260.038 45.8045L256.116 28.7963L259.361 28.0482L262.624 42.1995L270.021 40.4939L266.758 26.3426L269.991 25.597Z" fill="#BA9153"/>
<path d="M282.763 36.0039L288.365 22.2592L291.979 21.684L294.723 38.9215L291.435 39.4449L289.437 26.8983L283.871 40.6489L280.223 41.2295L277.48 23.992L280.768 23.4686L282.763 36.0039Z" fill="#BA9153"/>
<path d="M310.221 37.2007L308.875 22.7062L304.712 23.0926C303.723 23.1844 302.975 23.4858 302.467 23.9971C301.959 24.5084 301.74 25.1374 301.809 25.8842C301.878 26.6234 302.186 27.1959 302.733 27.6016C303.288 27.999 304.025 28.155 304.945 28.0696L310.32 27.5708L310.574 30.309L305.199 30.8079C303.917 30.9269 302.789 30.8186 301.814 30.483C300.846 30.1391 300.073 29.5984 299.495 28.8608C298.924 28.1225 298.589 27.2178 298.49 26.1466C298.388 25.0528 298.557 24.0861 298.997 23.2465C299.443 22.3985 300.129 21.711 301.054 21.1839C301.986 20.6561 303.116 20.3305 304.444 20.2073L311.787 19.5257L313.4 36.9056L310.221 37.2007ZM298.815 38.2593L302.9 29.0241L306.362 28.7028L302.278 37.9379L298.815 38.2593Z" fill="#BA9153"/>
<path d="M356.66 25.3168L356.513 28.2562L346.208 27.7388L346.355 24.7994L356.66 25.3168Z" fill="#BA9153"/>
<path d="M401.006 18.9934L396.996 41.9181L393.548 41.315L397.041 21.3455L386.251 19.4579L382.757 39.4274L379.31 38.8243L383.32 15.8997L401.006 18.9934Z" fill="#BA9153"/>
<path d="M408.433 44.9296C406.846 44.5317 405.552 43.8206 404.551 42.7965C403.55 41.7724 402.887 40.5244 402.561 39.0524C402.235 37.5805 402.291 35.97 402.729 34.2211C403.17 32.4649 403.882 31.011 404.866 29.8597C405.849 28.7083 407.024 27.9172 408.39 27.4863C409.755 27.0554 411.231 27.039 412.819 27.4369C414.406 27.8349 415.7 28.5459 416.7 29.57C417.701 30.5941 418.364 31.8458 418.688 33.3251C419.012 34.8044 418.954 36.4222 418.514 38.1785C418.075 39.9274 417.365 41.3738 416.383 42.5179C415.401 43.6619 414.227 44.4494 412.862 44.8802C411.496 45.3111 410.02 45.3276 408.433 44.9296ZM409.138 42.1657C410.166 42.4237 411.087 42.3655 411.899 41.9912C412.712 41.6169 413.393 41.0184 413.943 40.1956C414.5 39.3747 414.915 38.4204 415.188 37.3329C415.458 36.2527 415.542 35.2192 415.438 34.2324C415.343 33.2402 415.027 32.3837 414.489 31.6631C413.951 30.9425 413.167 30.4532 412.139 30.1953C411.103 29.9355 410.174 29.9955 409.352 30.3753C408.538 30.757 407.851 31.3619 407.292 32.1902C406.742 33.013 406.332 33.9645 406.061 35.0447C405.788 36.1322 405.7 37.1685 405.797 38.1534C405.901 39.1401 406.223 39.9901 406.763 40.7034C407.31 41.4185 408.101 41.906 409.138 42.1657Z" fill="#BA9153"/>
<path d="M418.95 52.3583L421.442 44.78L422.791 45.2236C423.241 45.0205 423.656 44.7384 424.038 44.3775C424.427 44.0189 424.804 43.5646 425.168 43.0144C425.539 42.4667 425.915 41.8087 426.295 41.0405C426.678 40.2651 427.084 39.3698 427.513 38.3546L430.065 32.3392L441.335 36.044L436.803 49.8296L439.351 50.6671L436.86 58.2454L433.708 57.2092L435.28 52.4269L423.718 48.6264L422.146 53.4087L418.95 52.3583ZM426.246 46.3591L433.651 48.7934L437.274 37.7714L432.049 36.0539L430.579 39.3624C429.841 41.0497 429.135 42.4924 428.462 43.6907C427.792 44.8817 427.053 45.7712 426.246 46.3591Z" fill="#BA9153"/>
<path d="M442.03 54.7544L448.589 38.5789L461.784 43.9288L455.226 60.1044L452.14 58.8534L457.597 45.3948L450.552 42.5384L445.095 55.9969L442.03 54.7544Z" fill="#BA9153"/>
<path d="M465.281 59.3724L477.747 51.3174L481.038 52.9165L473.411 68.6162L470.416 67.1611L475.968 55.7339L463.527 63.814L460.205 62.2L467.833 46.5004L470.828 47.9554L465.281 59.3724Z" fill="#BA9153"/>
<path d="M487.976 56.334L490.843 58.0275L483.462 70.5216L488.658 73.5907L496.038 61.0966L498.905 62.7901L491.524 75.2842L496.72 78.3533L504.1 65.8591L506.967 67.5526L498.089 82.5808L479.099 71.3622L487.976 56.334Z" fill="#BA9153"/>
<path d="M508.732 84.0115L522.335 78.0728L525.325 80.1818L515.265 94.4455L512.544 92.5265L519.866 82.1444L506.285 88.112L503.267 85.9834L513.327 71.7197L516.048 73.6387L508.732 84.0115Z" fill="#BA9153"/>
<path d="M525.249 102.658C523.936 101.596 523.045 100.384 522.578 99.0218C522.121 97.6588 522.066 96.2452 522.412 94.7811C522.758 93.317 523.481 91.9045 524.581 90.5437C525.696 89.1652 526.939 88.1583 528.31 87.523C529.686 86.8818 531.085 86.6448 532.509 86.8119C533.933 86.979 535.284 87.5794 536.562 88.6131C537.593 89.4466 538.357 90.3812 538.854 91.4166C539.357 92.4462 539.579 93.5028 539.521 94.5862C539.469 95.6745 539.122 96.7132 538.477 97.7025L535.906 95.6234C536.279 94.8728 536.398 94.063 536.263 93.1938C536.134 92.3295 535.648 91.5567 534.806 90.8756C534.069 90.2802 533.267 89.953 532.399 89.894C531.541 89.834 530.671 90.0365 529.789 90.5016C528.911 90.9608 528.081 91.6735 527.3 92.6396C526.5 93.6293 525.959 94.6049 525.679 95.5665C525.398 96.5282 525.372 97.4278 525.601 98.2655C525.835 99.1079 526.327 99.8316 527.075 100.437C527.576 100.841 528.103 101.117 528.657 101.263C529.222 101.408 529.783 101.418 530.341 101.295C530.905 101.176 531.44 100.917 531.948 100.519L534.519 102.598C533.715 103.399 532.796 103.952 531.761 104.255C530.727 104.559 529.65 104.584 528.529 104.331C527.415 104.082 526.322 103.525 525.249 102.658Z" fill="#BA9153"/>
<path d="M543.461 102.489L547.198 105.913C548.773 107.356 549.627 108.858 549.759 110.418C549.892 111.978 549.392 113.375 548.261 114.609C547.524 115.414 546.671 115.963 545.703 116.257C544.735 116.551 543.713 116.55 542.638 116.254C541.569 115.952 540.509 115.32 539.459 114.358L533.838 109.207L545.63 96.338L548.085 98.5875L538.273 109.294L541.44 112.197C542.16 112.857 542.924 113.212 543.73 113.263C544.542 113.308 545.217 113.037 545.754 112.451C546.322 111.831 546.554 111.113 546.448 110.297C546.348 109.476 545.938 108.735 545.217 108.075L541.481 104.65L543.461 102.489Z" fill="#BA9153"/>
<path d="M581.277 142.472L579.002 144.339L572.456 136.363L574.731 134.496L581.277 142.472Z" fill="#BA9153"/>
<path d="M614.907 169.797L595.272 182.291L593.393 179.338L610.497 168.455L604.617 159.213L587.513 170.095L585.634 167.142L605.269 154.649L614.907 169.797Z" fill="#BA9153"/>
<path d="M601.313 193.774C600.539 192.333 600.193 190.897 600.276 189.468C600.36 188.039 600.836 186.708 601.705 185.476C602.574 184.243 603.802 183.201 605.39 182.347C606.985 181.49 608.54 181.038 610.053 180.99C611.567 180.942 612.943 181.278 614.181 181.998C615.419 182.717 616.425 183.798 617.199 185.239C617.974 186.681 618.319 188.116 618.236 189.545C618.153 190.975 617.673 192.307 616.798 193.543C615.922 194.779 614.687 195.825 613.092 196.682C611.504 197.535 609.956 197.984 608.449 198.029C606.942 198.073 605.57 197.735 604.332 197.016C603.094 196.296 602.087 195.216 601.313 193.774ZM603.831 192.434C604.333 193.369 604.996 194.01 605.82 194.359C606.643 194.707 607.544 194.808 608.523 194.661C609.505 194.52 610.49 194.184 611.478 193.654C612.459 193.127 613.279 192.492 613.939 191.751C614.608 191.013 615.029 190.202 615.199 189.319C615.37 188.436 615.204 187.528 614.702 186.594C614.197 185.653 613.527 185.006 612.693 184.655C611.863 184.309 610.953 184.209 609.964 184.353C608.985 184.501 608.006 184.838 607.025 185.365C606.037 185.896 605.212 186.528 604.548 187.263C603.889 188.004 603.477 188.815 603.313 189.694C603.153 190.58 603.325 191.493 603.831 192.434Z" fill="#BA9153"/>
<path d="M606.896 203.394L609.571 202.167L609.829 202.736C610.03 203.177 610.291 203.504 610.611 203.716C610.942 203.932 611.379 204.033 611.922 204.019C612.465 204.006 613.16 203.869 614.008 203.609C614.862 203.346 615.91 202.962 617.153 202.455L624.316 199.54L629.352 210.632L613.459 217.848L612.083 214.817L625.306 208.812L622.948 203.618L617.434 205.822C616.095 206.355 614.889 206.741 613.815 206.979C612.745 207.223 611.794 207.301 610.964 207.213C610.14 207.121 609.428 206.845 608.828 206.385C608.235 205.922 607.742 205.256 607.347 204.387L606.896 203.394Z" fill="#BA9153"/>
<path d="M618.248 230.771C617.644 229.161 617.468 227.646 617.719 226.224C617.981 224.807 618.621 223.548 619.639 222.445C620.668 221.347 622.029 220.48 623.725 219.844C625.398 219.216 626.991 218.975 628.502 219.12C630.015 219.272 631.342 219.778 632.482 220.637C633.624 221.503 634.48 222.695 635.049 224.212C635.395 225.135 635.578 226.085 635.598 227.065C635.617 228.045 635.43 229.001 635.036 229.934C634.641 230.867 633.997 231.728 633.104 232.516C632.217 233.302 631.033 233.973 629.55 234.529L628.422 234.952L623.548 221.962L625.931 221.067L629.636 230.941C630.473 230.627 631.15 230.178 631.668 229.596C632.193 229.01 632.527 228.339 632.672 227.581C632.819 226.829 632.738 226.043 632.429 225.22C632.094 224.326 631.581 223.628 630.891 223.127C630.211 222.629 629.452 222.332 628.614 222.233C627.786 222.14 626.964 222.246 626.148 222.552L624.287 223.25C623.194 223.66 622.337 224.2 621.715 224.871C621.095 225.548 620.713 226.31 620.57 227.157C620.433 228.001 620.54 228.888 620.888 229.817C621.114 230.42 621.406 230.938 621.762 231.371C622.126 231.8 622.549 232.131 623.033 232.362C623.516 232.594 624.049 232.709 624.631 232.709L625.219 235.924C624.242 236.015 623.303 235.874 622.402 235.5C621.51 235.131 620.705 234.547 619.985 233.749C619.274 232.956 618.696 231.963 618.248 230.771Z" fill="#BA9153"/>
<path d="M627.07 240.477L628.081 243.804C627.413 244.055 626.981 244.522 626.785 245.207C626.592 245.9 626.635 246.706 626.915 247.626C627.199 248.562 627.64 249.298 628.239 249.837C628.846 250.373 629.573 250.512 630.421 250.255C630.928 250.101 631.332 249.84 631.632 249.471C631.941 249.108 632.132 248.666 632.203 248.146C632.277 247.632 632.22 247.068 632.033 246.452L631.207 243.733L633.762 242.957L634.588 245.675C634.868 246.596 635.287 247.221 635.846 247.55C636.405 247.879 637 247.947 637.631 247.756C638.312 247.549 638.785 247.136 639.048 246.518C639.321 245.904 639.325 245.163 639.061 244.293C638.792 243.408 638.369 242.733 637.792 242.267C637.223 241.799 636.622 241.645 635.989 241.805L634.992 238.522C635.934 238.26 636.839 238.293 637.707 238.623C638.585 238.959 639.36 239.531 640.033 240.339C640.716 241.153 641.238 242.155 641.599 243.344C641.976 244.583 642.102 245.716 641.979 246.744C641.856 247.771 641.517 248.638 640.964 249.344C640.413 250.058 639.68 250.554 638.767 250.831C637.846 251.111 637.009 251.064 636.254 250.692C635.509 250.324 634.877 249.74 634.357 248.94L634.183 248.993C634.335 249.652 634.313 250.284 634.117 250.89C633.921 251.495 633.58 252.027 633.093 252.483C632.606 252.94 632.001 253.278 631.276 253.499C630.254 253.809 629.284 253.795 628.365 253.457C627.449 253.125 626.637 252.525 625.929 251.655C625.231 250.79 624.69 249.724 624.304 248.455C623.93 247.223 623.786 246.059 623.873 244.964C623.969 243.874 624.286 242.934 624.822 242.146C625.361 241.365 626.11 240.808 627.07 240.477Z" fill="#BA9153"/>
<path d="M640.497 268.229L637.634 268.912L635.44 259.716L638.303 259.033L640.497 268.229ZM645.587 258.276L628.609 262.327L627.837 259.088L644.814 255.037L645.587 258.276ZM648.111 268.854L631.133 272.905L630.363 269.677L647.341 265.626L648.111 268.854Z" fill="#BA9153"/>
<path d="M632.715 283.113C632.528 282.022 632.561 281.002 632.814 280.052C633.074 279.101 633.548 278.301 634.237 277.653C634.926 277.012 635.835 276.596 636.963 276.403C637.933 276.237 638.764 276.287 639.455 276.553C640.147 276.819 640.729 277.238 641.204 277.811C641.678 278.383 642.076 279.045 642.396 279.797C642.717 280.549 642.996 281.324 643.232 282.121C643.528 283.131 643.768 283.951 643.952 284.58C644.144 285.209 644.355 285.653 644.584 285.914C644.813 286.174 645.129 286.27 645.532 286.201L645.61 286.188C646.589 286.02 647.299 285.614 647.743 284.97C648.187 284.333 648.317 283.473 648.131 282.39C647.939 281.263 647.537 280.417 646.925 279.853C646.323 279.295 645.698 278.944 645.051 278.801L645.229 275.531C646.339 275.726 647.276 276.127 648.041 276.734C648.814 277.347 649.427 278.099 649.879 278.99C650.338 279.88 650.657 280.844 650.834 281.882C650.952 282.569 650.994 283.311 650.962 284.108C650.937 284.912 650.77 285.686 650.459 286.431C650.15 287.183 649.636 287.843 648.919 288.412C648.209 288.979 647.227 289.37 645.972 289.584L634.547 291.538L633.988 288.267L636.34 287.865L636.317 287.731C635.847 287.588 635.366 287.336 634.874 286.974C634.381 286.613 633.939 286.116 633.546 285.484C633.154 284.851 632.877 284.061 632.715 283.113ZM635.527 283.381C635.686 284.307 636.004 285.067 636.482 285.662C636.962 286.264 637.526 286.686 638.174 286.929C638.832 287.178 639.5 287.244 640.18 287.128L642.398 286.749C642.258 286.649 642.106 286.437 641.943 286.112C641.788 285.792 641.637 285.422 641.488 285.002C641.347 284.58 641.211 284.169 641.081 283.769C640.959 283.367 640.855 283.031 640.771 282.761C640.577 282.126 640.338 281.556 640.052 281.051C639.767 280.554 639.414 280.176 638.993 279.918C638.581 279.665 638.076 279.59 637.479 279.692C636.65 279.834 636.075 280.248 635.754 280.933C635.441 281.617 635.365 282.433 635.527 283.381Z" fill="#BA9153"/>
<path d="M636.518 307.828L650.996 306.316L650.561 302.157C650.458 301.17 650.148 300.425 649.631 299.923C649.114 299.421 648.482 299.209 647.736 299.287C646.998 299.364 646.429 299.679 646.03 300.231C645.639 300.79 645.491 301.529 645.587 302.448L646.148 307.816L643.413 308.102L642.852 302.734C642.718 301.453 642.814 300.323 643.138 299.345C643.471 298.373 644.002 297.594 644.733 297.007C645.465 296.428 646.366 296.083 647.436 295.971C648.528 295.857 649.497 296.014 650.341 296.444C651.194 296.881 651.89 297.558 652.428 298.477C652.966 299.403 653.305 300.53 653.443 301.856L654.21 309.191L636.849 311.004L636.518 307.828ZM635.327 296.436L644.609 300.413L644.97 303.872L635.689 299.894L635.327 296.436Z" fill="#BA9153"/>
<path d="M642.581 328.317L655.363 335.862L655.405 339.521L637.952 339.723L637.913 336.394L650.617 336.247L637.825 328.736L637.782 325.043L655.235 324.84L655.274 328.17L642.581 328.317Z" fill="#BA9153"/>
</svg>
